<svg xmlns="http://www.w3.org/2000/svg" viewBox="0 0 841.89 732.7"><defs><style>.cls-1{fill:#fff;}.cls-2{fill:#29335c;}.cls-3{fill:#e56b45;}.cls-4{fill:#efe9e9;}.cls-5{fill:#cbc1c2;}.cls-6{fill:#ec7357;}.cls-7{fill:#6b9ac4;}</style></defs><g id="Capa_1" data-name="Capa 1"><path class="cls-1" d="M295,357.88c-2.66-8.85-5.65-18.06-9.44-25.5-4-7.72-10-16.58-22.08-16.58a35.68,35.68,0,0,0-8.83,1.24,22.4,22.4,0,0,0-4.63,1.74l-11.8,6L235.72,313c-4.48-20.83,3.05-36.41,20.67-42.77a35.23,35.23,0,0,1,12.37-2.07c16.91,0,38.88,9.77,58.79,26.13L343.61,307l-42.12,72.25Z"/><path class="cls-2" d="M331.62,309,304.38,355.7c-3.09-10.26-6.15-19.3-10-26.8-2.73-5.34-11-21.6-30.89-21.6A46.56,46.56,0,0,0,252,308.88a32.44,32.44,0,0,0-6.76,2.55c-2.23-10.34-2.68-27,14.92-33.34,12.85-4.9,37.25,3,60.89,22.48Z"/><path class="cls-1" d="M338.56,435.75l-7.42,4.15c-.32-.57-.65-1.15-1-1.73l-.4-.76c-10.2-18.92-16.38-38.82-20.15-52.14l-.05-.18c-.15-.51-.29-1-.43-1.53l0-.11c-.54-1.9-1.05-3.77-1.55-5.63l-.2-.72-.51-2c-.33-1.24-.67-2.54-1-3.82l-.3-1.15c-.35-1.36-1.86-7.28-1.86-7.29-.16-.59-1-3.84-1-3.84v-3.14l.94-1.84,98.5-191.92a87.74,87.74,0,0,1,107.78-42.6,85.14,85.14,0,0,1,10.48,4.55A87.84,87.84,0,0,1,511,284.56l-42.19,82.2-5,.15c-1,0-2,.07-2.78.14l-.25,0a62.51,62.51,0,0,0-19.16,5c-13.14,5.58-25.35,15.09-35.34,27.52l-1.74,2.21-4.33,5.55-15.81-8.12,11.9-23.2a9.08,9.08,0,0,0-16.15-8.29l-11.9,23.2L345,379a9,9,0,0,0-4.13-1,9.09,9.09,0,0,0-8.08,5,9.06,9.06,0,0,0,3.93,12.2l23.2,11.92L348,430.28a9.05,9.05,0,0,0-1,4.82l-15.88,4.84Z"/><path class="cls-1" d="M586.11,158.08a14.49,14.49,0,0,1-5.05-.9A15.4,15.4,0,0,1,571.79,147a20.48,20.48,0,0,1,.53-13c2.83-7.65,9.52-12.79,16.66-12.79a14.4,14.4,0,0,1,5,.9c8.54,3.16,12.38,13.33,8.75,23.15-2.83,7.65-9.52,12.79-16.66,12.79Z"/><ellipse class="cls-2" cx="587.54" cy="139.66" rx="10.18" ry="7.73" transform="translate(252.75 642.27) rotate(-69.7)"/><path class="cls-1" d="M271.41,220.91c-7.13,0-13.83-5.14-16.66-12.79-3.63-9.83.21-20,8.75-23.15a14.4,14.4,0,0,1,5-.9c7.14,0,13.83,5.13,16.66,12.78,3.64,9.83-.21,20-8.74,23.16A14.68,14.68,0,0,1,271.41,220.91Z"/><ellipse class="cls-2" cx="269.98" cy="202.49" rx="7.73" ry="10.18" transform="translate(-53.48 106.22) rotate(-20.3)"/><path class="cls-1" d="M237.18,259.59c-9.3,0-18.09-6.89-21.88-17.14-4.82-13,0-26.43,11-30.49a18.06,18.06,0,0,1,6.31-1.13c9.29,0,18.08,6.89,21.88,17.14a27.64,27.64,0,0,1,.75,17.49,19.57,19.57,0,0,1-11.74,13A18.18,18.18,0,0,1,237.18,259.59Z"/><ellipse class="cls-2" cx="234.88" cy="235.21" rx="12.37" ry="16.29" transform="translate(-67.01 96.08) rotate(-20.3)"/><path class="cls-1" d="M484.5,382.6a13,13,0,0,0-.16-5.5,11,11,0,0,0-4.37-6.16l-.09-.07q-.33-.24-.66-.45l-9.92-6.22,9-7.51C563,285.83,588.67,212.79,605.64,164.45c6.35-18,11.35-32.32,18-42.94,8.1-13,18.31-19.36,31.22-19.36.82,0,1.66,0,2.5.08h.22l.23,0c21.33,2.42,39,19,51.09,47.82a163.47,163.47,0,0,1,12.28,53.69,29,29,0,0,1,20,9c11.67,11.79,17.4,33.91,17.05,65.74,0,12.6-5.55,44.07-7.74,56.38l-12.13-18a28.11,28.11,0,0,0-3.84-8.42c-4-5.76-9.89-9.3-18.14-10.82a75,75,0,0,0-13.63-1.28c-22.73,0-39.42,10.81-49.42,19.89l-10.1,9.16-3.79-13.1a25.32,25.32,0,0,0-5.68-10.09,26,26,0,0,0-19.17-8.64,25.23,25.23,0,0,0-10.21,2.18c-13.24,5.82-24.25,19.1-37,34.46l-.07.09c-17.51,21.12-37.36,45.07-70.66,61.28l-14.77,7.19Z"/><path class="cls-2" d="M749.68,278.46a206.3,206.3,0,0,1-3.17,36.18,36.34,36.34,0,0,0-5-11c-5.22-7.6-13.16-12.43-23.6-14.36a83.68,83.68,0,0,0-15.17-1.42c-26,0-44.82,12.73-55.14,22.09A34,34,0,0,0,640,296.54a34.54,34.54,0,0,0-25.47-11.43,33.72,33.72,0,0,0-13.63,2.9c-15.11,6.64-26.73,20.67-40.19,36.9-17.09,20.62-36.2,43.67-67.84,59.07a21.44,21.44,0,0,0-.34-9.08A19.46,19.46,0,0,0,485,364.07c-.4-.3-.81-.58-1.24-.85C633,238.4,602.58,107.4,656.8,110.72c41.26,4.69,58.06,74.7,55.71,103.1C727.41,207.9,750.36,217,749.68,278.46Z"/><path class="cls-1" d="M476.65,369.08c-.4-.18-.85-.35-1.34-.52a28.51,28.51,0,0,0-6.48-1.44,36.83,36.83,0,0,0-4.14-.22h-.95l-14.32.36L499,270.66l3.33-1.08a70.85,70.85,0,0,0,24.35-120.91l9.69-13.87a87.12,87.12,0,0,1,22.16,17.55l4.63,5.54a87.85,87.85,0,0,1-38.94,135.93L484,372.25Z"/><path class="cls-3" d="M564.13,247.74a79.16,79.16,0,0,1-45.94,39.18l-36,70.21L480,361.28c-.62-.27-1.27-.52-1.93-.75a37,37,0,0,0-8.35-1.86,46.46,46.46,0,0,0-5.07-.27h-1.17L505,277.66a79.35,79.35,0,0,0,27.26-135.43,78.85,78.85,0,0,1,22.42,18.63h0A79.4,79.4,0,0,1,564.13,247.74Z"/><path class="cls-4" d="M550.9,238.47A79.14,79.14,0,0,1,505,277.66l-41.44,80.75c-1.06,0-2.14.08-3.23.17l-.25,0a71.06,71.06,0,0,0-21.8,5.64c-14.41,6.12-27.77,16.5-38.63,30-.61.76-1.22,1.53-1.82,2.3l-2-1,8-15.64a17.58,17.58,0,0,0-31.28-16l-8,15.64-15.64-8a17.57,17.57,0,1,0-16,31.27l15.63,8-8,15.63a17.44,17.44,0,0,0-1.89,9.35c-.3-.53-.6-1.06-.89-1.6l-.37-.7c-8.92-16.55-14.86-34.11-19.49-50.49-.15-.53-.3-1-.44-1.58h0c-.61-2.15-1.18-4.26-1.75-6.36-.17-.67-.35-1.34-.52-2-.45-1.69-.88-3.35-1.31-5l-1.85-7.24c-.24-.95-.49-1.89-.73-2.82h0l26.2-51.05,2.68-5.22L409.71,166a79.33,79.33,0,0,1,97.34-38.49,79.68,79.68,0,0,1,25.17,14.7A79.34,79.34,0,0,1,550.9,238.47Z"/><circle class="cls-5" cx="480.31" cy="202.23" r="67.45"/><circle class="cls-3" cx="447.14" cy="185.22" r="17.57"/><circle class="cls-3" cx="463.29" cy="235.4" r="17.57"/><circle class="cls-3" cx="497.33" cy="169.07" r="17.57"/><circle class="cls-3" cx="513.47" cy="219.25" r="17.57"/><path class="cls-6" d="M403.82,379.9l-8,15.64,2,1a126.76,126.76,0,0,0-11.21,17.6,19.41,19.41,0,0,0-2.42-1.25,22.33,22.33,0,0,0-2.52-.87l-.1,0a21.79,21.79,0,0,0-5.58-.72l-1.08,0-.78.06c-.42,0-.87.08-1.3.14s-.71.11-1.1.19c-.74.15-1.36.3-1.95.46l-.13,0-1,.32-.8.29h-.16l-1,.5c-.37.16-.74.35-1.11.55s-.52.28-.77.42l-.16.1a21,21,0,0,0-2.91,2l-.19.17c-.22.19-.45.39-.67.6a20.24,20.24,0,0,0-2.42,2.63l-.31.39c-.14.18-.28.37-.41.57l-.18.26c-.19.27-.37.54-.55.83l-.28.47c-.14.24-.28.48-.41.72s-.43.78-.62,1.19-.37.79-.54,1.2l-.29.69-.14.35-.12.36c-.13.36-.26.73-.34,1,0,0-.12.41-.17.55a4.21,4.21,0,0,0-.13.46c-.07.23-.13.46-.19.69s-.14.58-.2.86c0,.11-.05.22-.06.28-.07.3-.13.6-.18.91s-.18.95-.25,1.49c0,.13,0,.25-.05.36s-.1.84-.1.84l-.11,1.18c0,.45-.06.91-.08,1.38s0,1.16,0,1.75,0,1,0,1.54c0,.34,0,.68.05,1s0,.75.06,1.1c0,.5.08,1,.14,1.53s.11,1,.18,1.5.11.84.18,1.26c0,.14,0,.29.07.43.05.41.13.81.2,1.23l0,.08c.11.65.25,1.32.4,2.05l.07.28c.08.41.18.84.28,1.28a17.33,17.33,0,0,1-6.29-1.85c-.25-.13-.5-.26-.74-.4a0,0,0,0,0,0,0h0a155,155,0,0,1-8.74-13.86v0a17.44,17.44,0,0,1,1.89-9.35l8-15.63-15.63-8a17.57,17.57,0,1,1,16-31.27l15.64,8,8-15.64a17.58,17.58,0,0,1,31.28,16Z"/><rect class="cls-5" x="408.2" y="312.27" width="17.57" height="35.15" rx="6.68" transform="translate(-80.99 143.58) rotate(-17.84)"/><rect class="cls-5" x="429.98" y="269.82" width="17.57" height="35.15" rx="6.68" transform="translate(-66.94 148.21) rotate(-17.84)"/><path class="cls-1" d="M231.68,481.05l-1.24-.39a228.59,228.59,0,0,1-98.9-62c-24.18-25.92-40.49-55.78-45.92-84.09-5.67-29.59,1.22-54,19.4-68.78a27.43,27.43,0,0,1,17.4-6.28h.46c-1.91-19.24,2-38.53,10.6-50.12,5.93-8,13.87-12.34,23-12.69l1.48,0c17.7,0,24,12.44,34.35,33.05a526.69,526.69,0,0,0,31.18,54.89h0l1.26,1.91c5.85,8.94,12.3,18.17,19.24,27.57,3.87-5.66,9.71-11.43,18.18-13.91a39.39,39.39,0,0,1,11-1.69c19.32,0,27.19,17.52,29.78,23.27C307.51,332,310.82,345,314.66,360l1.88,7.32c5.2,20.11,11.71,43.39,23.25,64.8,0,0,.28.5.37.68a138.48,138.48,0,0,0,25.23,33.66l15.08,14.61Z"/><path class="cls-7" d="M359.47,472.55H233C116.14,436,60.85,312.57,110.38,272.36a19.2,19.2,0,0,1,23.2-.93c-7.27-28.36.19-65.39,23.18-66.27,22.14-.86,19,22.36,60.81,86,0,0,0,0,0,0,7.64,11.65,16.82,24.67,27.93,39.13,0,0,4.67-17.78,19-22,15.57-4.55,24.23,2.73,30.6,16.9,4.67,10.4,8.12,24.49,12.19,40.33l1,3.86c5.41,20.95,12.08,44.61,24,66.73l.36.66A147.93,147.93,0,0,0,359.47,472.55Z"/><path class="cls-1" d="M362.8,481.05l-2.34-4.74c-.54-1.08-1-2.16-1.53-3.2-.71-1.55-1.4-3.1-2-4.6s-1.14-2.79-1.67-4.22c-.23-.59-.47-1.24-.7-1.91s-.49-1.36-.71-2-.51-1.56-.76-2.34c-.11-.39-.59-2-.59-2l0-.1-.16-.61c-.07-.24-.13-.46-.18-.69s-.18-.66-.26-1l-.09-.35c-.17-.69-.32-1.37-.47-2l-.07-.33q-.24-1.11-.42-2.16v0c-.08-.43-.15-.85-.21-1.27,0-.19-.06-.37-.08-.52-.07-.42-.13-.85-.19-1.27s-.13-1-.18-1.58S350,443,350,442.45c0-.34-.05-.72-.07-1.09s-.05-.78-.05-1.17q0-.81,0-1.59c0-.64,0-1.26.05-1.88s0-1,.07-1.43l.13-1.32.05-.42c0-.12,0-.28.06-.49s0-.22,0-.34c.08-.59.17-1.14.28-1.66.05-.32.12-.64.19-.95,0-.11.05-.22.07-.32l.21-.9c.06-.26.13-.51.2-.76s.09-.35.17-.58.16-.5.16-.5c.11-.38.24-.76.37-1.12l.15-.44.16-.4.31-.75c.18-.43.38-.86.6-1.32s.45-.9.69-1.33c.14-.27.3-.53.45-.79l.22-.38.11-.17c.18-.28.37-.59.6-.91.07-.1.14-.21.22-.31a12.15,12.15,0,0,1,.81-1.08,23.56,23.56,0,0,1,2.69-2.93c.26-.25.52-.47.78-.69l.22-.19a23.36,23.36,0,0,1,3.27-2.3c.33-.21.69-.4,1-.59s.84-.44,1.26-.62L367,410h.29l.39-.14q.54-.19,1.11-.36l.16-.05c.65-.18,1.33-.34,2.15-.51.46-.09.85-.15,1.25-.21s.89-.14,1.56-.18l.78,0,1.23,0a24.71,24.71,0,0,1,6.31.82l.16,0a24,24,0,0,1,2.84,1l.15.06a125,125,0,0,1,12-17.88c11.14-13.88,24.88-24.55,39.73-30.85a73.93,73.93,0,0,1,22.66-5.86l.38,0c1.53-.12,3-.18,4.51-.18a42,42,0,0,1,16.25,3h.17l1.84.94c6.39,3.27,10.66,8.34,12.35,14.66a22.77,22.77,0,0,1,.74,5c28.53-15.1,46.43-36.7,62.51-56.1,13.69-16.51,25.52-30.77,41.24-37.69a36.47,36.47,0,0,1,14.76-3.13,37.67,37.67,0,0,1,34.31,22.85c11.16-9.25,29.43-20.07,53.85-20.07a86.62,86.62,0,0,1,15.69,1.46c11.21,2.07,19.76,7.3,25.43,15.55,9,13.13,7.21,29.34,6.57,33.4v.46l-.21.76v.06l-.1.32c-20,70.47-70.79,125.51-132.51,143.63l-1.17.35Z"/><path class="cls-7" d="M741.91,334.68a.32.32,0,0,0,0,.07c-18,63.4-63.93,119.35-126.73,137.79H368.08c-.5-1-1-2-1.42-3-.68-1.48-1.31-2.91-1.89-4.31s-1.08-2.64-1.56-3.92c-.23-.62-.46-1.21-.67-1.82s-.43-1.21-.63-1.81-.49-1.49-.71-2.21c-.16-.52-.3-1-.45-1.5,0-.07,0-.15-.05-.22q-.12-.37-.21-.75c-.05-.17-.09-.34-.13-.51-.12-.42-.23-.84-.33-1.25-.16-.64-.3-1.29-.44-1.91l0-.16c-.13-.63-.26-1.26-.36-1.86-.08-.44-.16-.86-.21-1.28,0-.11,0-.21-.06-.32-.06-.39-.12-.79-.17-1.18s-.12-.91-.16-1.34-.09-.87-.12-1.29-.05-.77-.06-1.14a6,6,0,0,1,0-.73c0-.49,0-1,0-1.45s0-1,0-1.51,0-.85.07-1.26.05-.56.08-.84l0-.31a5.78,5.78,0,0,1,.08-.6.66.66,0,0,1,0-.14,11.82,11.82,0,0,1,.21-1.26c0-.24.08-.46.13-.69s.05-.24.08-.34c.05-.26.12-.53.18-.79s.1-.36.15-.54a1.09,1.09,0,0,1,0-.17c.05-.2.12-.4.19-.61s.23-.71.35-1.05l.34-.83c.14-.33.28-.64.44-1a8.66,8.66,0,0,1,.47-.91c.13-.26.29-.51.44-.76l.08-.13a7.12,7.12,0,0,1,.47-.7l.09-.15c.17-.25.34-.48.53-.71a15.12,15.12,0,0,1,1.87-2,7.5,7.5,0,0,1,.6-.54,15.55,15.55,0,0,1,2.17-1.53l.74-.41c.24-.13.48-.25.71-.35l0,0c.5-.22,1-.43,1.53-.6l.77-.25c.52-.15,1-.26,1.56-.37l.79-.13a7,7,0,0,1,.77-.09l.78-.06a16.14,16.14,0,0,1,4.9.52,16.46,16.46,0,0,1,1.87.64,12.24,12.24,0,0,1,1.69.88,6.58,6.58,0,0,1,.77.53,6.43,6.43,0,0,1,.71.58c.22.2.43.41.64.62a5.62,5.62,0,0,1,.58.71,5.9,5.9,0,0,1,.42.6l.06.1a4,4,0,0,1,.36.68,1,1,0,0,1,.1.18c.1.24.19.48.27.73a8.24,8.24,0,0,1,.24.85A122.58,122.58,0,0,1,404,397.81c11.19-13.93,24.12-23.13,36.43-28.35a65.71,65.71,0,0,1,20.06-5.21h0c7.36-.64,13.8.39,18.54,2.83h0c9.05,4.63,11.92,14.4,3.32,27.61,68.48-26.1,86.56-86.44,120.81-101.49,19.91-8.77,42,7.53,39.89,29.18,0,.38-.06.62-.06.7.74-1,27.53-36.75,73.81-28.2C747.78,300.59,742.2,333.13,741.91,334.68Z"/><path class="cls-7" d="M644.5,586.13h0a4.18,4.18,0,0,0,0,.5A4.18,4.18,0,0,0,644.5,586.13Z"/><path class="cls-6" d="M149.14,611.88c0,4.5.38,13.7.66,17.09H134.41a51.13,51.13,0,0,1-.81-8.37c-3.16,5.83-8.93,9.84-19.2,9.84-16.11,0-22.17-12.75-22.17-24.63,0-16.55,11.3-27.31,32.8-27.31,3.19,0,5.41,0,7.49.21v-9.82c0-5.44-.83-12-10.21-12s-10.35,6.46-10.83,12H95.37c.33-12.21,6.1-25.1,27.56-25.1,17.41,0,26.21,8.07,26.21,23.88Zm-16.23-20.64a42.71,42.71,0,0,0-6.94-.37c-12.31,0-17,5.8-17,13.47,0,6,3,12.2,10.77,12.2,10.67,0,13.19-7.81,13.19-22Z"/><path class="cls-6" d="M220.53,513.1v93.18c0,9.31,0,17.8.16,22.69H204.41c-.27-2.12-.55-6.83-.55-9.69-2.5,6.38-7.65,11.16-19,11.16-17.59,0-24.75-15.52-24.75-44.11,0-26.05,8.88-42.56,27.78-42.56,9.68,0,14,3.78,15.71,7.31v-38Zm-43.16,73.46c0,21,4.17,29.42,13.07,29.42,11,0,13.65-8.92,13.65-30s-2.17-27.71-12.79-27.71C182.73,558.29,177.37,565.18,177.37,586.56Z"/><path class="cls-6" d="M231.2,573.63c0-13.63,0-22.46-.16-28.44h16.17c.16,1.69.44,5.31.44,14.18,3.29-9.7,10.92-15.5,22-15.55v18.87c-13.94-.05-21.57,5.67-21.57,21.36V629H231.2Z"/><path class="cls-6" d="M280,545.19h16.9V629H280Zm.11-32.09H297v18.5h-16.9Z"/><path class="cls-6" d="M317.53,629V559.2H307.38v-14h10.15v-9.3c0-13.44,5.73-23.84,21.87-23.84A31.82,31.82,0,0,1,347,513v14.34a23,23,0,0,0-4.89-.58c-5.92,0-7.66,3.47-7.66,10.14v8.31h12.32v14H334.43V629Z"/><path class="cls-6" d="M357.32,559.2v-14h11.27v-21.4h16.85v21.4h13.49v14H385.44v48.91c0,5.17,1,8.22,7.14,8.22a25,25,0,0,0,5.15-.38v12.56c-3.31,1.39-8.22,1.6-11.17,1.6-12.2,0-18-4.63-18-19.06V559.2Z"/><path class="cls-7" d="M444.21,579.14v14.74H409.28V579.14Z"/><path class="cls-7" d="M454.56,545.19h11.26v-21.4h16.86v21.4h13.49v14H482.68v48.91c0,5.17,1,8.22,7.13,8.22A24.9,24.9,0,0,0,495,616v12.56c-3.31,1.39-8.22,1.6-11.17,1.6-12.2,0-18-4.63-18-19.06V559.2H454.56Z"/><path class="cls-7" d="M523.35,591.18c0,12.57,1.81,25.24,13.39,25.24,10.82,0,12.2-9.62,12.58-12.36h16.26c-.28,2.48-2.31,26.49-29.07,26.49-26.33,0-30-22.75-30-43.83,0-26.55,9.75-43,30.48-43,23.54,0,29.24,18.17,29.24,39.72,0,2.49-.11,6-.27,7.69Zm26.16-12.48c0-10.26-1.66-20.92-12.57-20.92-12.51,0-13.21,15-13.31,20.92Z"/><path class="cls-7" d="M633.5,611.88c0,4.5.37,13.7.65,17.09H618.77a50,50,0,0,1-.82-8.37c-3.16,5.83-8.93,9.84-19.2,9.84-16.1,0-22.17-12.75-22.17-24.63,0-16.55,11.3-27.31,32.8-27.31,3.19,0,5.41,0,7.49.21v-9.82c0-5.44-.83-12-10.21-12s-10.34,6.46-10.83,12h-16.1c.32-12.21,6.09-25.1,27.55-25.1,17.41,0,26.22,8.07,26.22,23.88Zm-16.24-20.64a42.57,42.57,0,0,0-6.93-.37c-12.32,0-17,5.8-17,13.47,0,6,3,12.2,10.77,12.2,10.67,0,13.19-7.81,13.19-22Z"/><path class="cls-7" d="M655.05,570.32c0-16,0-21.4-.17-25.13h16.17a71.43,71.43,0,0,1,.55,9.27c3.62-6.75,9.74-10.69,18.54-10.69,9,0,14.55,4,17.11,11.73,3.3-6.14,9.36-11.73,20.48-11.73,11.41,0,20.89,5.72,20.89,24.86V629H732V571.24c0-7.28-2.26-13-9.87-13-8.8,0-11.71,7.11-11.71,17.77V629H693.58v-57.4c0-8.59-2.88-13.17-9.77-13.17-8.51,0-12,6.61-12,18.38V629H655.05Z"/></g></svg>